<svg width="400" height="600" xmlns="http://www.w3.org/2000/svg">
  <rect width="400" height="600" fill="#f8f9fa"/>
  <text x="200" y="40" text-anchor="middle" font-family="Arial" font-size="24" font-weight="bold" fill="#333">دليل مقاسات المريول المدرسي</text>
  
  <!-- Table -->
  <rect x="50" y="80" width="300" height="400" fill="white" stroke="#ddd" stroke-width="2"/>
  
  <!-- Header -->
  <rect x="50" y="80" width="300" height="40" fill="#dc3545" stroke="#dc3545"/>
  <text x="200" y="105" text-anchor="middle" font-family="Arial" font-size="16" font-weight="bold" fill="white">جدول المقاسات</text>
  
  <!-- Size rows -->
  <g font-family="Arial" font-size="14" fill="#333">
    <text x="70" y="145" font-weight="bold">المقاس</text>
    <text x="150" y="145" font-weight="bold">الصدر (سم)</text>
    <text x="250" y="145" font-weight="bold">الطول (سم)</text>
    
    <text x="70" y="175">34</text>
    <text x="150" y="175">68-72</text>
    <text x="250" y="175">85</text>
    
    <text x="70" y="205">36</text>
    <text x="150" y="205">72-76</text>
    <text x="250" y="205">90</text>
    
    <text x="70" y="235">38</text>
    <text x="150" y="235">76-80</text>
    <text x="250" y="235">95</text>
    
    <text x="70" y="265">40</text>
    <text x="150" y="265">80-84</text>
    <text x="250" y="265">100</text>
    
    <text x="70" y="295">42</text>
    <text x="150" y="295">84-88</text>
    <text x="250" y="295">105</text>
    
    <text x="70" y="325">44</text>
    <text x="150" y="325">88-92</text>
    <text x="250" y="325">110</text>
    
    <text x="70" y="355">46</text>
    <text x="150" y="355">92-96</text>
    <text x="250" y="355">115</text>
    
    <text x="70" y="385">48</text>
    <text x="150" y="385">96-100</text>
    <text x="250" y="385">120</text>
  </g>
  
  <!-- Lines -->
  <line x1="50" y1="120" x2="350" y2="120" stroke="#ddd" stroke-width="1"/>
  <line x1="50" y1="160" x2="350" y2="160" stroke="#ddd" stroke-width="1"/>
  <line x1="50" y1="190" x2="350" y2="190" stroke="#ddd" stroke-width="1"/>
  <line x1="50" y1="220" x2="350" y2="220" stroke="#ddd" stroke-width="1"/>
  <line x1="50" y1="250" x2="350" y2="250" stroke="#ddd" stroke-width="1"/>
  <line x1="50" y1="280" x2="350" y2="280" stroke="#ddd" stroke-width="1"/>
  <line x1="50" y1="310" x2="350" y2="310" stroke="#ddd" stroke-width="1"/>
  <line x1="50" y1="340" x2="350" y2="340" stroke="#ddd" stroke-width="1"/>
  <line x1="50" y1="370" x2="350" y2="370" stroke="#ddd" stroke-width="1"/>
  <line x1="50" y1="400" x2="350" y2="400" stroke="#ddd" stroke-width="1"/>
  
  <line x1="130" y1="80" x2="130" y2="400" stroke="#ddd" stroke-width="1"/>
  <line x1="230" y1="80" x2="230" y2="400" stroke="#ddd" stroke-width="1"/>
  
  <text x="200" y="440" text-anchor="middle" font-family="Arial" font-size="12" fill="#666">قم بقياس الصدر والطول بدقة</text>
  <text x="200" y="460" text-anchor="middle" font-family="Arial" font-size="12" fill="#666">لاختيار المقاس المناسب للمريول المدرسي</text>
</svg> 